#!OML:ASF E:\acrobat2\Project_11_07_03\Capture day 1\Session 1\Acrobat.ASF
:FULLY-SPECIFIED
:DEGREES
1668
root 2.73428 6.75225 -24.5752 24.3336 -6.58895 11.4894
lowerback 27.0625 -4.12613 0.815385
upperback 15.8032 -4.98305 0.236615
thorax 2.73482 -2.41637 0.97486
lowerneck 2.65277 7.77909 0.440654
upperneck -36.1386 7.30984 -14.8852
head -11.5458 5.26204 -6.50784
rclavicle -1.82882e-014 -7.55382e-015
rhumerus 45.9116 5.08638 -59.8917
rradius 27.0015
rwrist 10.0477
rhand -24.6818 286.201
rfingers 7.12502
rthumb 1.81892 103.771
lclavicle -1.82882e-014 -7.55382e-015
lhumerus 69.3112 -28.3003 46.5795
lradius 22.2216
lwrist -4.90157
lhand -53.6692 -34.5994
lfingers 7.12502
lthumb -26.1066 -6.37383
rfemur -150.724 -41.7215 46.3841
rtibia 15.0497
rfoot -207.947 4.30238
rtoes -15.5097
lfemur -137.287 11.8313 -39.1518
ltibia 37.9513
lfoot -530.85 28.6034
ltoes 50.5871
1669
root 2.73731 6.74916 -24.5772 24.2041 -6.66374 11.4883
lowerback 27.1524 -4.11816 0.837608
upperback 15.8572 -4.96768 0.275048
thorax 2.75912 -2.40997 1.00363
lowerneck 2.77172 7.78493 0.378828
upperneck -36.1085 7.28834 -14.9491
head -11.5607 5.27059 -6.52602
rclavicle 3.02153e-014 4.03533e-014
rhumerus 45.9676 5.16019 -59.6769
rradius 27.2149
rwrist 10.0181
rhand -24.805 286.111
rfingers 7.12502
rthumb 1.69994 103.862
lclavicle 3.02153e-014 4.03533e-014
lhumerus 69.2058 -28.1132 46.87
lradius 22.3238
lwrist -4.57292
lhand -53.3058 -35.1924
lfingers 7.12502
lthumb -25.7586 -6.91593
rfemur -150.529 -41.7681 46.2232
rtibia 15.0413
rfoot -207.974 4.17093
rtoes -15.4823
lfemur -137.237 11.9024 -39.1204
ltibia 37.95
lfoot -531.155 28.7119
ltoes 50.1841
1670
root 2.74041 6.74768 -24.579 24.0982 -6.76425 11.4843
lowerback 27.2213 -4.11159 0.853168
upperback 15.9124 -4.95661 0.301913
thorax 2.79387 -2.40571 1.0232
lowerneck 2.83078 7.79667 0.309247
upperneck -36.0713 7.27997 -15.0014
head -11.5604 5.28357 -6.53436
rclavicle -3.81667e-014 1.68967e-014
rhumerus 46.0277 5.23955 -59.4815
rradius 27.4433
rwrist 9.98727
rhand -24.8932 286.038
rfingers 7.12502
rthumb 1.61474 103.935
lclavicle -3.81667e-014 1.68967e-014
lhumerus 69.024 -27.8488 47.3771
lradius 22.4092
lwrist -4.12976
lhand -52.6273 -36.1312
lfingers 7.12502
lthumb -25.1087 -7.76214
rfemur -150.353 -41.7888 46.0812
rtibia 15.0528
rfoot -208.008 4.05169
rtoes -15.4465
lfemur -137.203 11.9878 -39.113
ltibia 37.9542
lfoot -531.459 28.8213
ltoes 49.7905
1671
root 2.74337 6.74791 -24.581 24.0114 -6.87661 11.4745
lowerback 27.2795 -4.10032 0.869189
upperback 15.9667 -4.94016 0.324433
thorax 2.83189 -2.3986 1.03589
lowerneck 2.83788 7.80823 0.263688
upperneck -36.021 7.27531 -15.0594
head -11.5417 5.29459 -6.54389
rclavicle -7.95139e-015 -2.38542e-014
rhumerus 46.0963 5.29274 -59.3206
rradius 27.6376
rwrist 9.97519
rhand -24.9729 285.966
rfingers 7.12502
rthumb 1.53777 104.008
lclavicle -7.95139e-015 -2.38542e-014
lhumerus 68.8679 -27.5661 47.8924
lradius 22.4961
lwrist -3.55104
lhand -51.7786 -37.1554
lfingers 7.12502
lthumb -24.2953 -8.67496
rfemur -150.209 -41.787 45.9795
rtibia 15.085
rfoot -208.029 3.9576
rtoes -15.4227
lfemur -137.176 12.0783 -39.1214
ltibia 37.9675
lfoot -531.65 28.8757
ltoes 49.5302
1672
root 2.7462 6.74986 -24.5834 23.9367 -6.98282 11.4575
lowerback 27.3455 -4.08366 0.896723
upperback 16.0112 -4.91413 0.351497
thorax 2.85448 -2.38609 1.04576
lowerneck 2.81146 7.81305 0.251186
upperneck -35.9504 7.26427 -15.1279
head -11.5054 5.29844 -6.55764
rclavicle 3.10104e-014 -6.24184e-014
rhumerus 46.1637 5.30004 -59.2163
rradius 27.7653
rwrist 10.0146
rhand -25.0557 285.901
rfingers 7.12502
rthumb 1.45775 104.074
lclavicle 3.10104e-014 -6.24184e-014
lhumerus 68.9051 -27.4188 47.8835
lradius 22.6028
lwrist -3.05643
lhand -51.4699 -37.6104
lfingers 7.12502
lthumb -23.9993 -9.09064
rfemur -150.107 -41.7756 45.9348
rtibia 15.1349
rfoot -208.035 3.90603
rtoes -15.4682
lfemur -137.147 12.1611 -39.1322
ltibia 37.9911
lfoot -531.765 28.8892
ltoes 49.3802
1673
root 2.74903 6.75322 -24.586 23.8648 -7.06736 11.4313
lowerback 27.4166 -4.07507 0.951237
upperback 16.0497 -4.89191 0.380485
thorax 2.86577 -2.37351 1.04417
lowerneck 2.76925 7.80804 0.239054
upperneck -35.8706 7.24656 -15.1722
head -11.4642 5.29529 -6.55964
rclavicle -5.48646e-014 3.53837e-014
rhumerus 46.235 5.27367 -59.1677
rradius 27.8299
rwrist 10.1022
rhand -25.1409 285.863
rfingers 7.12502
rthumb 1.37545 104.112
lclavicle -5.48646e-014 3.53837e-014
lhumerus 69.0721 -27.335 47.5874
lradius 22.7036
lwrist -2.45116
lhand -51.2808 -37.8491
lfingers 7.12502
lthumb -23.8179 -9.30561
rfemur -150.047 -41.7767 45.9542
rtibia 15.1977
rfoot -208.026 3.9018
rtoes -15.616
lfemur -137.105 12.2276 -39.1315
ltibia 38.0204
lfoot -531.835 28.8794
ltoes 49.3097
